<svg width="24" height="25" viewBox="0 0 24 25" fill="none" xmlns="http://www.w3.org/2000/svg">
<path fill-rule="evenodd" clip-rule="evenodd" d="M1.25 9C1.25 8.58579 1.58579 8.25 2 8.25H22C22.4142 8.25 22.75 8.58579 22.75 9C22.75 9.41421 22.4142 9.75 22 9.75H2C1.58579 9.75 1.25 9.41421 1.25 9Z" fill="#252525"/>
<path fill-rule="evenodd" clip-rule="evenodd" d="M5.25 17C5.25 16.5858 5.58579 16.25 6 16.25H8C8.41421 16.25 8.75 16.5858 8.75 17C8.75 17.4142 8.41421 17.75 8 17.75H6C5.58579 17.75 5.25 17.4142 5.25 17Z" fill="#252525"/>
<path fill-rule="evenodd" clip-rule="evenodd" d="M9.75 17C9.75 16.5858 10.0858 16.25 10.5 16.25H14.5C14.9142 16.25 15.25 16.5858 15.25 17C15.25 17.4142 14.9142 17.75 14.5 17.75H10.5C10.0858 17.75 9.75 17.4142 9.75 17Z" fill="#252525"/>
<path fill-rule="evenodd" clip-rule="evenodd" d="M3.41607 5.41207C2.99101 5.83235 2.75 6.63117 2.75 8.39V16.61C2.75 18.3688 2.99101 19.1676 3.41607 19.5879C3.84409 20.0111 4.659 20.25 6.44 20.25H17.56C19.341 20.25 20.1559 20.0111 20.5839 19.5879C21.009 19.1676 21.25 18.3688 21.25 16.61V15.49C21.25 15.0758 21.5858 14.74 22 14.74C22.4142 14.74 22.75 15.0758 22.75 15.49V16.61C22.75 18.3612 22.546 19.7574 21.6386 20.6546C20.7341 21.5489 19.329 21.75 17.56 21.75H6.44C4.671 21.75 3.26591 21.5489 2.36143 20.6546C1.45399 19.7574 1.25 18.3612 1.25 16.61V8.39C1.25 6.63883 1.45399 5.24265 2.36143 4.34543C3.26591 3.45113 4.671 3.25 6.44 3.25H17.55C19.3237 3.25 20.7311 3.45104 21.6368 4.34493C22.5461 5.24225 22.75 6.63889 22.75 8.39V11.48C22.75 11.8942 22.4142 12.23 22 12.23C21.5858 12.23 21.25 11.8942 21.25 11.48V8.39C21.25 6.63111 21.0089 5.83275 20.5832 5.41257C20.1539 4.98896 19.3363 4.75 17.55 4.75H6.44C4.659 4.75 3.84409 4.98887 3.41607 5.41207Z" fill="#252525"/>
</svg>
