<svg width="22" height="22" viewBox="0 0 22 22" fill="none" xmlns="http://www.w3.org/2000/svg">
<path fill-rule="evenodd" clip-rule="evenodd" d="M20.5002 11.25C20.9144 11.25 21.2502 11.5858 21.2502 12V14.26C21.2502 16.5692 20.7924 18.3809 19.5768 19.5966C18.3612 20.8122 16.5494 21.27 14.2402 21.27H14.1102C12.0317 21.27 10.3594 20.8993 9.15793 19.9382C7.93483 18.9597 7.33911 17.4841 7.16344 15.5996C7.125 15.1872 7.42817 14.8217 7.84059 14.7832C8.25302 14.7448 8.61852 15.048 8.65697 15.4604C8.8113 17.1159 9.30558 18.1353 10.095 18.7668C10.906 19.4157 12.1687 19.77 14.1102 19.77H14.2402C16.401 19.77 17.7193 19.3328 18.5161 18.5359C19.313 17.7391 19.7502 16.4208 19.7502 14.26V12C19.7502 11.5858 20.086 11.25 20.5002 11.25Z" fill="#E00C0B"/>
<path fill-rule="evenodd" clip-rule="evenodd" d="M10.075 3.25738C9.2846 3.89874 8.79254 4.9363 8.64718 6.62434C8.61164 7.03702 8.24829 7.34276 7.8356 7.30722C7.42291 7.27169 7.11717 6.90833 7.15271 6.49564C7.31735 4.58368 7.9053 3.08624 9.12988 2.0926C10.3338 1.11574 12.0163 0.73999 14.1099 0.73999H14.2399C16.5491 0.73999 18.3609 1.19778 19.5765 2.41341C20.7922 3.62904 21.2499 5.44081 21.2499 7.74999C21.2499 8.1642 20.9142 8.49999 20.4999 8.49999C20.0857 8.49999 19.7499 8.1642 19.7499 7.74999C19.7499 5.58917 19.3127 4.27094 18.5159 3.47407C17.719 2.6772 16.4008 2.23999 14.2399 2.23999H14.1099C12.1536 2.23999 10.8861 2.59924 10.075 3.25738Z" fill="#E00C0B"/>
<path fill-rule="evenodd" clip-rule="evenodd" d="M1.87012 11C1.87012 10.5858 2.2059 10.25 2.62012 10.25H14.0001C14.4143 10.25 14.7501 10.5858 14.7501 11C14.7501 11.4142 14.4143 11.75 14.0001 11.75H2.62012C2.2059 11.75 1.87012 11.4142 1.87012 11Z" fill="#E00C0B"/>
<path fill-rule="evenodd" clip-rule="evenodd" d="M5.38033 7.11963C5.67322 7.41253 5.67322 7.8874 5.38033 8.18029L2.56066 11L5.38033 13.8196C5.67322 14.1125 5.67322 14.5874 5.38033 14.8803C5.08744 15.1732 4.61256 15.1732 4.31967 14.8803L0.96967 11.5303C0.676777 11.2374 0.676777 10.7625 0.96967 10.4696L4.31967 7.11963C4.61256 6.82674 5.08744 6.82674 5.38033 7.11963Z" fill="#E00C0B"/>
</svg>
