<svg width="24" height="24" viewBox="0 0 24 24" fill="none" xmlns="http://www.w3.org/2000/svg">
<path d="M20.8894 6.44L18.6694 7.55M20.8894 6.44L18.6694 5.33M20.8894 6.44V9.22M3.10938 6.44L5.32938 5.33M3.10938 6.44L5.32938 7.55M3.10938 6.44V9.22M11.9994 22L9.77937 20.89M11.9994 22L14.2194 20.89M11.9994 22V19.22M18.6694 18.67L20.8894 17.56V14.78M14.2194 3.11L11.9994 2L9.77937 3.11H14.2194ZM5.32938 18.67L3.10938 17.56V14.78L5.32938 18.67Z" stroke="#292D32" stroke-width="1.5" stroke-linecap="round" stroke-linejoin="round"/>
<path d="M14.9902 12H16.0002" stroke="#292D32" stroke-width="1.5" stroke-linecap="round" stroke-linejoin="round"/>
<path d="M8 12H11.81" stroke="#292D32" stroke-width="1.5" stroke-linecap="round" stroke-linejoin="round"/>
<path d="M12 16V8" stroke="#292D32" stroke-width="1.5" stroke-linecap="round" stroke-linejoin="round"/>
</svg>
