<svg width="24" height="25" viewBox="0 0 24 25" fill="none" xmlns="http://www.w3.org/2000/svg">
<path d="M16 8.72656H8V16.7266H16V8.72656Z" stroke="#292D32" stroke-width="1.5" stroke-linecap="round" stroke-linejoin="round"/>
<path d="M5 22.7266C6.65 22.7266 8 21.3766 8 19.7266V16.7266H5C3.35 16.7266 2 18.0766 2 19.7266C2 21.3766 3.35 22.7266 5 22.7266Z" stroke="#292D32" stroke-width="1.5" stroke-linecap="round" stroke-linejoin="round"/>
<path d="M5 8.72656H8V5.72656C8 4.07656 6.65 2.72656 5 2.72656C3.35 2.72656 2 4.07656 2 5.72656C2 7.37656 3.35 8.72656 5 8.72656Z" stroke="#292D32" stroke-width="1.5" stroke-linecap="round" stroke-linejoin="round"/>
<path d="M16 8.72656H19C20.65 8.72656 22 7.37656 22 5.72656C22 4.07656 20.65 2.72656 19 2.72656C17.35 2.72656 16 4.07656 16 5.72656V8.72656Z" stroke="#292D32" stroke-width="1.5" stroke-linecap="round" stroke-linejoin="round"/>
<path d="M19 22.7266C20.65 22.7266 22 21.3766 22 19.7266C22 18.0766 20.65 16.7266 19 16.7266H16V19.7266C16 21.3766 17.35 22.7266 19 22.7266Z" stroke="#292D32" stroke-width="1.5" stroke-linecap="round" stroke-linejoin="round"/>
</svg>
