<svg width="27" height="27" viewBox="0 0 27 27" fill="none" xmlns="http://www.w3.org/2000/svg">
<path d="M13.374 27C20.7603 27 26.748 21.0171 26.748 13.6367C26.748 6.25638 20.7603 0.273438 13.374 0.273438C5.98775 0.273438 0 6.25638 0 13.6367C0 21.0171 5.98775 27 13.374 27Z" fill="#304ACA"/>
<path d="M17.4386 9.37678L17.16 10.7399C17.1204 10.9347 17.1469 11.137 17.2353 11.3151C17.3236 11.4931 17.4689 11.6367 17.6481 11.7232C18.9769 12.3679 21.9326 13.9608 21.7428 15.2927C21.5634 16.5509 18.5761 16.3614 16.9227 16.3984C16.3602 16.4112 15.9005 16.2172 15.8236 17.7302C15.823 17.7391 15.823 17.748 15.8236 17.7569L15.793 18.9294C15.793 18.9367 15.6148 20.2933 17.0285 20.1711C19.1047 19.9921 23.4811 18.782 23.2461 15.0131C23.0285 11.5236 20.3069 9.59102 18.746 8.76345C18.6222 8.69788 18.4848 8.66197 18.3446 8.65858C18.2045 8.65519 18.0655 8.68441 17.9387 8.74392C17.8118 8.80343 17.7006 8.89159 17.6138 9.00144C17.527 9.11128 17.467 9.23979 17.4386 9.37678Z" fill="white"/>
<path d="M8.75015 10.8122L9.79809 10.8241C10.5384 10.8326 11.1312 11.4882 11.122 12.2883L11.1108 13.2612C11.1018 14.0613 10.4941 14.703 9.75355 14.6943L8.70562 14.6824C7.9653 14.6739 7.37245 14.0183 7.3817 13.2182L7.39289 12.2453C7.40214 11.4455 8.00983 10.8037 8.75015 10.8122Z" fill="white"/>
<path d="M12.1517 17.3211L12.1493 17.5155C12.1432 18.0353 12.1271 19.1363 12.1271 19.1363C12.1186 19.8478 11.5408 20.1774 10.8823 20.2182C8.83071 20.345 7.12738 19.961 5.51847 18.6326C5.22813 18.3928 4.31502 17.6396 4.06484 17.8288C3.6645 18.1315 3.29969 17.6758 3.13469 17.3551C2.86698 16.8344 2.6078 16.3107 2.34082 15.7879C2.00692 15.1503 2.27025 14.7942 2.6353 14.4294C3.03856 14.0264 3.45837 13.536 3.48222 12.3807C3.51726 10.6775 5.28314 10.856 5.2863 12.1459C5.28825 13.32 4.19894 16.9135 10.8721 16.4481C11.3946 16.4117 11.8572 16.6034 12.0529 16.956C12.1179 17.0726 12.1534 17.1513 12.1517 17.3211Z" fill="white"/>
<path d="M15.7099 7.09479C15.7272 7.58521 15.678 8.08632 15.6542 8.56873C15.6186 9.28869 15.583 10.0087 15.5473 10.7289L15.127 19.2404C15.1198 19.3854 15.0816 19.5272 15.0148 19.6563C14.5084 20.6393 12.954 20.3308 12.8943 19.2353L12.3662 9.53354C12.3217 8.71228 12.1959 7.85362 12.262 7.0365C12.3241 6.27524 12.6887 5.45229 13.3864 5.02769C14.0238 4.63905 14.7335 4.81734 15.172 5.38986C15.5663 5.9053 15.6885 6.49167 15.7099 7.09479Z" fill="white"/>
</svg>
