<svg width="22" height="22" viewBox="0 0 22 22" fill="none" xmlns="http://www.w3.org/2000/svg">
<path d="M2.68846 10.4771C2.68846 6.17656 6.17907 2.68846 10.4872 2.68846C14.7953 2.68846 18.2859 6.17656 18.2859 10.4771C18.2859 12.6326 17.4103 14.5824 15.9925 15.9937C14.5811 17.3986 12.6365 18.2658 10.4872 18.2658C6.17907 18.2658 2.68846 14.7777 2.68846 10.4771ZM10.4872 0.85C5.16572 0.85 0.85 5.1592 0.85 10.4771C0.85 15.795 5.16572 20.1042 10.4872 20.1042C12.8114 20.1042 14.9448 19.2814 16.6091 17.9126L19.5812 20.8811C19.9403 21.2399 20.5224 21.2396 20.8811 20.8804C21.2399 20.5212 21.2396 19.9392 20.8804 19.5804L17.9118 16.6152C19.293 14.9496 20.1244 12.8097 20.1244 10.4771C20.1244 5.1592 15.8086 0.85 10.4872 0.85Z" fill="#304ACA" stroke="#304ACA" stroke-width="0.3" stroke-linecap="round" stroke-linejoin="round"/>
</svg>
