<svg width="98" height="27" viewBox="0 0 98 27" fill="none" xmlns="http://www.w3.org/2000/svg">
<g clip-path="url(#clip0_480_401)">
<path d="M4.61848 12.1349V17.8206C4.61848 19.5951 3.76141 20.9098 2.04727 21.7647C0.560679 22.5275 -0.182617 23.6504 -0.182617 25.1336V25.5066H-0.0618652C2.30219 25.5066 4.22336 24.777 5.70163 23.3177C7.21264 21.8249 7.96815 19.9924 7.96815 17.8202V9.05359C6.91197 9.05359 6.0875 9.35624 5.49474 9.96155C4.9103 10.5743 4.61822 11.2987 4.61848 12.1349Z" fill="#304ACA"/>
<path d="M18.5822 11.8132V15.8925C18.5809 16.2285 18.4495 16.5505 18.2167 16.7881C17.9839 17.0258 17.6685 17.1599 17.3392 17.1612H14.1465C13.7891 17.1612 13.4968 17.0368 13.2695 16.7881C13.0256 16.5561 12.9037 16.2576 12.904 15.8925V1.37781C11.8478 1.37781 11.0232 1.67635 10.4302 2.27344C9.84522 2.88724 9.55273 3.6169 9.55273 4.46241V15.8925C9.55273 17.1946 10.0031 18.2975 10.904 19.2014C11.7323 20.0551 12.7274 20.5129 13.8893 20.5748V20.5818H17.3376C18.5967 20.5818 19.6811 20.1258 20.5911 19.2137C21.4846 18.2852 21.9314 17.1783 21.9314 15.8929V8.71628C20.8752 8.71628 20.0508 9.01893 19.458 9.62424C18.8744 10.2378 18.5824 10.9674 18.5822 11.8132Z" fill="#304ACA"/>
<path d="M20.0325 22.9446C19.7198 22.9453 19.4121 23.0247 19.1367 23.1758C18.8613 23.3269 18.6267 23.545 18.4536 23.8108C18.2805 24.0766 18.1743 24.3819 18.1444 24.6996C18.1146 25.0173 18.1619 25.3376 18.2823 25.6322C18.4027 25.9267 18.5925 26.1864 18.8347 26.3882C19.0769 26.59 19.3642 26.7277 19.671 26.7891C19.9778 26.8505 20.2948 26.8337 20.5937 26.7402C20.8927 26.6467 21.1644 26.4794 21.3849 26.2531C21.5616 26.0743 21.7011 25.861 21.7952 25.626C21.8894 25.3909 21.9361 25.1389 21.9327 24.885C21.9327 24.3627 21.75 23.9066 21.3845 23.5169C21.2094 23.3323 20.999 23.1863 20.7665 23.0878C20.534 22.9894 20.2842 22.9406 20.0325 22.9446Z" fill="#304ACA"/>
<path d="M16.0231 22.9445C15.5797 22.9418 15.1492 23.0963 14.805 23.3816C14.4608 23.6669 14.2244 24.0653 14.136 24.5088C14.0477 24.9522 14.1129 25.4133 14.3206 25.8131C14.5283 26.213 14.8656 26.5268 15.2748 26.701C15.684 26.8752 16.1398 26.899 16.5643 26.7684C16.9887 26.6377 17.3556 26.3606 17.6022 25.9845C17.8488 25.6084 17.9598 25.1565 17.9163 24.7062C17.8727 24.2558 17.6773 23.8348 17.3635 23.5152C17.1901 23.3316 16.9817 23.1863 16.7512 23.0881C16.5207 22.99 16.2729 22.9411 16.0231 22.9445Z" fill="#304ACA"/>
<path d="M62.5702 4.66126C62.3941 4.84173 62.2546 5.05582 62.1597 5.29132C62.0647 5.52682 62.0161 5.77911 62.0166 6.03378C62.0171 6.28845 62.0668 6.54052 62.1628 6.77559C62.2588 7.01067 62.3992 7.22414 62.576 7.40383C62.7528 7.58352 62.9626 7.72591 63.1933 7.82285C63.424 7.9198 63.6712 7.96941 63.9207 7.96886C64.1702 7.96831 64.4172 7.9176 64.6475 7.81963C64.8778 7.72166 65.0869 7.57835 65.263 7.39788C65.4399 7.21927 65.5797 7.00603 65.674 6.77094C65.7683 6.53586 65.8151 6.28376 65.8116 6.02977C65.8116 5.50718 65.6287 5.05101 65.263 4.66126C65.0866 4.48002 64.8768 4.33619 64.6457 4.23804C64.4147 4.13989 64.1668 4.08936 63.9166 4.08936C63.6663 4.08936 63.4185 4.13989 63.1874 4.23804C62.9563 4.33619 62.7466 4.48002 62.5702 4.66126Z" fill="#304ACA"/>
<path d="M76.4864 8.06755C76.7363 8.0688 76.984 8.01948 77.2152 7.92243C77.4464 7.82538 77.6564 7.68254 77.8332 7.50215C78.01 7.32176 78.15 7.1074 78.2451 6.87146C78.3402 6.63552 78.3886 6.38268 78.3874 6.12755C78.3874 5.60496 78.2047 5.14892 77.8392 4.75944C77.6188 4.5337 77.3472 4.3669 77.0486 4.27379C76.7499 4.18069 76.4334 4.16415 76.127 4.22565C75.8206 4.28714 75.5338 4.42477 75.292 4.62636C75.0501 4.82795 74.8606 5.08728 74.7404 5.38141C74.6201 5.67554 74.5727 5.99539 74.6023 6.31267C74.632 6.62995 74.7379 6.93488 74.9105 7.20046C75.0831 7.46605 75.3172 7.68411 75.5921 7.83534C75.867 7.98658 76.1741 8.06633 76.4864 8.06755Z" fill="#304ACA"/>
<path d="M40.4903 21.726C40.1777 21.727 39.8702 21.8065 39.5949 21.9577C39.3196 22.1089 39.0852 22.3271 38.9122 22.5928C38.7393 22.8586 38.6332 23.1638 38.6034 23.4814C38.5736 23.799 38.621 24.1192 38.7413 24.4137C38.8617 24.7081 39.0513 24.9677 39.2935 25.1695C39.5356 25.3713 39.8227 25.509 40.1295 25.5705C40.4362 25.632 40.753 25.6153 41.0519 25.522C41.3508 25.4286 41.6226 25.2615 41.8431 25.0354C42.02 24.8567 42.1597 24.6435 42.2539 24.4084C42.3481 24.1733 42.3948 23.9212 42.3913 23.6673C42.3913 23.1452 42.2086 22.6892 41.8431 22.2992C41.6679 22.1144 41.4575 21.9682 41.2248 21.8696C40.9921 21.7711 40.7422 21.7222 40.4903 21.726Z" fill="#304ACA"/>
<path d="M59.9022 7.96967C60.2783 7.97086 60.6462 7.85783 60.9592 7.64497C61.2721 7.43211 61.516 7.12903 61.6597 6.77431C61.8034 6.41959 61.8405 6.02925 61.7662 5.65295C61.6919 5.27666 61.5097 4.93142 61.2426 4.66116C61.0666 4.48144 60.8576 4.33888 60.6275 4.24161C60.3975 4.14433 60.151 4.09426 59.902 4.09424C59.653 4.09422 59.4065 4.14426 59.1764 4.24149C58.9464 4.33873 58.7374 4.48126 58.5613 4.66095C58.3852 4.84064 58.2455 5.05397 58.1502 5.28875C58.0549 5.52354 58.0059 5.77518 58.0059 6.02932C58.0058 6.28346 58.0549 6.53511 58.1501 6.76991C58.2454 7.00471 58.385 7.21806 58.5611 7.39778C58.7345 7.5816 58.9429 7.72718 59.1736 7.82555C59.4043 7.92391 59.6523 7.97296 59.9022 7.96967Z" fill="#304ACA"/>
<path d="M81.4082 4.4747V20.569C82.4644 20.569 83.289 20.2664 83.882 19.6611C84.4667 19.0558 84.7592 18.33 84.7595 17.4836V1.3905C83.7114 1.3905 82.8908 1.68891 82.2977 2.28573C81.705 2.89131 81.4085 3.62097 81.4082 4.4747Z" fill="#304ACA"/>
<path d="M62.2047 3.72859C62.4546 3.72978 62.7024 3.68041 62.9335 3.58331C63.1647 3.48622 63.3747 3.34332 63.5514 3.1629C63.7281 2.98247 63.8681 2.76808 63.9632 2.53212C64.0582 2.29616 64.1066 2.04331 64.1053 1.78818C64.1053 1.26586 63.9226 0.809821 63.5571 0.420069C63.3814 0.238231 63.1722 0.0936166 62.9416 -0.0054704C62.711 -0.104557 62.4634 -0.156165 62.2132 -0.157329C61.963 -0.158492 61.715 -0.109189 61.4835 -0.0122515C61.252 0.0846864 61.0415 0.22735 60.8642 0.407546C60.6868 0.587742 60.5461 0.80192 60.4501 1.03778C60.3541 1.27364 60.3047 1.52654 60.3047 1.78195C60.3047 2.03736 60.3542 2.29025 60.4502 2.5261C60.5462 2.76195 60.687 2.97611 60.8643 3.15628C61.0375 3.34013 61.2459 3.48577 61.4764 3.58421C61.7069 3.68265 61.9548 3.73178 62.2047 3.72859Z" fill="#304ACA"/>
<path d="M97.2979 13.1813C96.9241 12.327 96.3636 11.5601 95.6163 10.8806C94.8606 10.209 93.9386 9.68243 92.8503 9.30089C91.7455 8.91141 90.3645 8.71667 88.7073 8.71667V9.88552C88.6991 10.4426 88.8845 10.9846 89.2305 11.4155C89.5775 11.865 90.0699 12.1736 90.6196 12.2861L91.6661 12.51C92.5758 12.734 93.2784 13.186 93.774 13.8658C94.2696 14.5456 94.5174 15.2255 94.5174 15.9056C94.513 16.2373 94.3818 16.5542 94.152 16.7888C93.9221 17.0233 93.6116 17.1571 93.2866 17.1615H89.1215C88.2931 17.1615 87.582 17.4601 86.9882 18.0572C86.3949 18.6625 86.0984 19.504 86.0986 20.5818H93.2878C94.0982 20.5893 94.8951 20.3697 95.5917 19.9471C96.2771 19.5379 96.8479 18.9558 97.2492 18.2564C97.6633 17.552 97.8704 16.7685 97.8707 15.906C97.872 14.9665 97.6767 14.0376 97.2979 13.1813Z" fill="#304ACA"/>
<path d="M75.4989 11.8131V15.8924C75.4976 16.2284 75.3662 16.5504 75.1334 16.788C74.9006 17.0257 74.5852 17.1597 74.2559 17.161H70.2103C69.8811 17.1597 69.5657 17.0257 69.3329 16.788C69.1 16.5504 68.9687 16.2284 68.9674 15.8924V8.71619C67.9115 8.71619 67.087 9.01884 66.494 9.62415C65.909 10.2374 65.6165 10.9671 65.6165 11.8131V16.1163C65.618 16.323 65.5589 16.5255 65.4468 16.6978C65.3347 16.87 65.1748 17.0042 64.9875 17.083C64.8002 17.1619 64.5942 17.1818 64.3957 17.1403C64.1972 17.0988 64.0155 16.9977 63.8737 16.85C63.7784 16.7546 63.7034 16.6402 63.6531 16.514C63.6029 16.3878 63.5785 16.2525 63.5815 16.1163V9.58758C62.5253 9.58758 61.7007 9.89024 61.1076 10.4955C60.5227 11.1091 60.2302 11.8349 60.2302 12.673V16.1179C60.2302 16.395 60.1223 16.6607 59.9304 16.8567C59.7384 17.0526 59.4781 17.1627 59.2066 17.1627C58.9351 17.1627 58.6748 17.0526 58.4828 16.8567C58.2909 16.6607 58.183 16.395 58.183 16.1179V10.4483C57.1365 10.4483 56.3161 10.7509 55.7217 11.3563C55.1273 11.9616 54.8308 12.6912 54.8322 13.5452V15.8956C54.8345 16.0625 54.8032 16.2281 54.7404 16.3821C54.6775 16.5362 54.5844 16.6754 54.4667 16.7913C54.3541 16.9126 54.2178 17.0085 54.0667 17.0728C53.9156 17.137 53.7529 17.1682 53.5892 17.1643H50.1277C49.9885 16.072 49.7015 15.0048 49.2747 13.993C48.5355 12.3182 47.5931 11.0536 46.4475 10.1993C45.2859 9.32862 44.0309 8.84355 42.6825 8.74412C42.5927 8.73591 42.5058 8.72974 42.4205 8.72564C42.3351 8.72153 42.2478 8.71947 42.1584 8.71947C42.1094 8.71592 42.0601 8.72008 42.0123 8.7318H41.9773C40.3525 8.82355 39.0162 9.43516 37.9683 10.5666C36.895 11.7148 36.3547 13.2259 36.3474 15.0998H37.6028C38.5938 15.0998 39.3656 14.6068 39.9181 13.6208C40.1297 13.1657 40.4688 12.7848 40.8925 12.5263C41.3219 12.2859 41.7484 12.1656 42.1721 12.1656C43.0496 12.1656 43.9431 12.5585 44.8528 13.3443C45.7547 14.1466 46.3681 15.4202 46.6931 17.1652H34.8002C34.6367 17.1675 34.4745 17.1356 34.3236 17.0714C34.1727 17.0073 34.0362 16.9122 33.9227 16.7921C33.6793 16.5601 33.5575 16.2616 33.5572 15.8965V8.72851C31.4288 8.72851 29.7026 9.0602 28.3786 9.72357C27.7606 10.0365 27.1833 10.4271 26.6603 10.8863C26.1769 11.317 25.7581 11.8178 25.4173 12.3727C24.7433 13.4754 24.4062 14.657 24.4062 15.9174C24.4062 17.1861 24.853 18.2847 25.7466 19.2132C26.6402 20.1258 27.7205 20.5819 28.9876 20.5813C28.9797 20.6044 28.9674 20.6256 28.9514 20.6438C28.8129 20.8426 28.3782 21.1079 27.6472 21.4396C26.1529 22.1944 25.4055 23.3174 25.4053 24.8085V25.1692H25.687C27.5308 25.1692 29.0947 24.7049 30.3786 23.7764C31.7104 22.7978 32.608 21.6244 33.0714 20.2563C33.4938 20.4722 34.0707 20.5799 34.8022 20.5797H53.5896C54.7027 20.5797 55.6044 20.2854 56.2949 19.6968C56.8957 20.2854 57.7161 20.5797 58.7562 20.5797H59.6582C60.584 20.5797 61.3313 20.3468 61.9002 19.8812C62.4685 20.3468 63.2158 20.5797 64.1421 20.5797H65.0438C66.0838 20.5797 66.9044 20.2854 67.5055 19.6968C68.1959 20.2854 69.0975 20.5797 70.2103 20.5797H74.2559C75.515 20.5797 76.5995 20.1236 77.5094 19.2116C78.403 18.2831 78.8498 17.1761 78.8498 15.8907V8.71619C77.7936 8.71619 76.9691 9.01884 76.3763 9.62415C75.7914 10.2377 75.4989 10.9673 75.4989 11.8131ZM28.9389 17.1471C28.7776 17.1489 28.6177 17.1171 28.4689 17.0535C28.3202 16.9899 28.1857 16.8959 28.0739 16.7773C27.9554 16.6674 27.8615 16.5328 27.7985 16.3826C27.7354 16.2324 27.7047 16.0701 27.7084 15.9067C27.7084 15.2187 27.9561 14.5347 28.4514 13.8546C28.9548 13.1745 29.5236 12.7557 30.1577 12.5982V15.8817C30.1577 16.5037 30.2064 16.9266 30.3038 17.1504L28.9389 17.1471Z" fill="#304ACA"/>
</g>
<defs>
<clipPath id="clip0_480_401">
<rect width="98" height="27" fill="white"/>
</clipPath>
</defs>
</svg>
