<svg width="26" height="32" viewBox="0 0 26 32" fill="none" xmlns="http://www.w3.org/2000/svg">
<g filter="url(#filter0_d_1_195)">
<path fill-rule="evenodd" clip-rule="evenodd" d="M19.721 8.90997C19.721 5.18576 16.6952 2.15997 12.971 2.15997C9.25679 2.15997 6.221 5.19576 6.221 8.90997V11.8C6.221 12.2142 6.55679 12.55 6.971 12.55C7.38522 12.55 7.721 12.2142 7.721 11.8V8.90997C7.721 6.02419 10.0852 3.65997 12.971 3.65997C15.8668 3.65997 18.221 6.01419 18.221 8.90997V11.8C18.221 12.1953 18.3024 12.6513 18.4171 13.0643C18.5318 13.4776 18.6965 13.908 18.8968 14.244L18.8985 14.2468L18.8985 14.2468L20.0484 16.1566C20.0484 16.1567 20.0484 16.1568 20.0485 16.1568C20.2973 16.5705 20.3111 16.9558 20.2014 17.252C20.0915 17.5489 19.8287 17.8341 19.3719 17.9891C15.2166 19.3771 10.7339 19.3769 6.57867 17.9886L6.57641 17.9879C5.82546 17.7396 5.48988 16.8463 5.90413 16.1558C6.11724 15.8007 6.00206 15.34 5.64688 15.1269C5.29169 14.9137 4.831 15.0289 4.61789 15.3841C3.71234 16.8934 4.43622 18.8594 6.10447 19.4117C10.5684 20.9029 15.3848 20.9027 19.8487 19.4113L19.8515 19.4104C20.6939 19.1253 21.3256 18.5358 21.6081 17.7729C21.8909 17.0092 21.7947 16.1495 21.3336 15.3833L21.3335 15.3831L20.1852 13.4759C20.185 13.4755 20.1847 13.4751 20.1845 13.4746C20.075 13.2905 19.955 12.9966 19.8624 12.6631C19.7696 12.3286 19.721 12.0146 19.721 11.8V8.90997Z" fill="#252525"/>
<path fill-rule="evenodd" clip-rule="evenodd" d="M15.5191 2.73641C15.1196 1.71713 14.1279 1.00006 12.9708 1.00006C11.8136 1.00006 10.8219 1.71713 10.4225 2.73641C10.3182 3.00248 10.3742 3.30469 10.5669 3.51574C10.7596 3.72679 11.0554 3.81 11.3299 3.73032C11.6073 3.64978 11.8873 3.58901 12.171 3.55461L12.1738 3.55427C13.0382 3.44622 13.855 3.51035 14.6114 3.73025C14.8859 3.81003 15.1818 3.72688 15.3746 3.51583C15.5673 3.30478 15.6234 3.00252 15.5191 2.73641Z" fill="#252525"/>
<path fill-rule="evenodd" clip-rule="evenodd" d="M15.2212 20.0001C15.2212 20.6126 14.9664 21.1842 14.5609 21.5897C14.1553 21.9953 13.5837 22.2501 12.9712 22.2501C11.7354 22.2501 10.7212 21.2358 10.7212 20.0001H9.22119C9.22119 22.0643 10.907 23.7501 12.9712 23.7501C13.9987 23.7501 14.947 23.3249 15.6215 22.6504C16.296 21.9759 16.7212 21.0275 16.7212 20.0001H15.2212Z" fill="#252525"/>
</g>
<defs>
<filter id="filter0_d_1_195" x="-3" y="0" width="32" height="32" filterUnits="userSpaceOnUse" color-interpolation-filters="sRGB">
<feFlood flood-opacity="0" result="BackgroundImageFix"/>
<feColorMatrix in="SourceAlpha" type="matrix" values="0 0 0 0 0 0 0 0 0 0 0 0 0 0 0 0 0 0 127 0" result="hardAlpha"/>
<feOffset dy="4"/>
<feGaussianBlur stdDeviation="2"/>
<feComposite in2="hardAlpha" operator="out"/>
<feColorMatrix type="matrix" values="0 0 0 0 0 0 0 0 0 0 0 0 0 0 0 0 0 0 0.25 0"/>
<feBlend mode="normal" in2="BackgroundImageFix" result="effect1_dropShadow_1_195"/>
<feBlend mode="normal" in="SourceGraphic" in2="effect1_dropShadow_1_195" result="shape"/>
</filter>
</defs>
</svg>
