<svg width="24" height="24" viewBox="0 0 24 24" fill="none" xmlns="http://www.w3.org/2000/svg">
<path fill-rule="evenodd" clip-rule="evenodd" d="M6.25 7C6.25 3.82579 8.82579 1.25 12 1.25C13.3065 1.25 14.5057 1.67527 15.4745 2.41344C15.804 2.66447 15.8676 3.13506 15.6166 3.46454C15.3655 3.79402 14.8949 3.85761 14.5655 3.60658C13.8543 3.06475 12.9735 2.75 12 2.75C9.65421 2.75 7.75 4.65421 7.75 7C7.75 9.34579 9.65421 11.25 12 11.25C14.3458 11.25 16.25 9.34579 16.25 7C16.25 6.58579 16.5858 6.25 17 6.25C17.4142 6.25 17.75 6.58579 17.75 7C17.75 10.1742 15.1742 12.75 12 12.75C8.82579 12.75 6.25 10.1742 6.25 7Z" fill="#292D32"/>
<path fill-rule="evenodd" clip-rule="evenodd" d="M2.66016 22C2.66016 17.5791 6.99728 14.25 12.0002 14.25C17.003 14.25 21.3401 17.5791 21.3401 22C21.3401 22.4142 21.0044 22.75 20.5901 22.75C20.1759 22.75 19.8401 22.4142 19.8401 22C19.8401 18.6809 16.4773 15.75 12.0002 15.75C7.52303 15.75 4.16016 18.6809 4.16016 22C4.16016 22.4142 3.82437 22.75 3.41016 22.75C2.99594 22.75 2.66016 22.4142 2.66016 22Z" fill="#292D32"/>
</svg>
