<svg width="22" height="22" viewBox="0 0 22 22" fill="none" xmlns="http://www.w3.org/2000/svg">
<path fill-rule="evenodd" clip-rule="evenodd" d="M1.81453 7.40785C2.04532 6.06117 3.21691 5.10256 4.56643 5.10256H17.4336C18.7831 5.10256 19.9547 6.06117 20.1855 7.40785C20.4404 8.89507 20.7886 11.1154 20.9105 12.8018C21.0276 14.4218 21.0082 16.5516 20.9727 18.0369C20.9381 19.4822 19.8022 20.6412 18.3677 20.7258C16.4282 20.8402 13.3101 21 11 21C8.68993 21 5.57175 20.8402 3.63229 20.7258C2.19783 20.6412 1.06193 19.4822 1.02733 18.0369C0.991767 16.5516 0.972415 14.4218 1.0895 12.8018C1.21137 11.1154 1.55964 8.89507 1.81453 7.40785ZM4.56643 6.64103C3.94945 6.64103 3.43226 7.07616 3.33088 7.66773C3.07652 9.15187 2.73995 11.3077 2.62396 12.9127C2.51262 14.4532 2.52989 16.5193 2.56535 18C2.58059 18.6365 3.07852 19.152 3.72291 19.19C5.6615 19.3044 8.73965 19.4615 11 19.4615C13.2604 19.4615 16.3385 19.3044 18.2771 19.19C18.9215 19.152 19.4194 18.6365 19.4347 18C19.4701 16.5193 19.4874 14.4532 19.376 12.9127C19.2601 11.3077 18.9235 9.15187 18.6691 7.66773C18.5677 7.07616 18.0506 6.64103 17.4336 6.64103H4.56643Z" fill="#304ACA"/>
<path d="M8.94872 9.97436C8.94872 10.5408 8.48952 11 7.92308 11C7.35663 11 6.89744 10.5408 6.89744 9.97436C6.89744 9.40791 7.35663 8.94872 7.92308 8.94872C8.48952 8.94872 8.94872 9.40791 8.94872 9.97436Z" fill="#304ACA"/>
<path d="M15.1026 9.97436C15.1026 10.5408 14.6434 11 14.0769 11C13.5105 11 13.0513 10.5408 13.0513 9.97436C13.0513 9.40791 13.5105 8.94872 14.0769 8.94872C14.6434 8.94872 15.1026 9.40791 15.1026 9.97436Z" fill="#304ACA"/>
<path fill-rule="evenodd" clip-rule="evenodd" d="M7.15385 3.82051C7.15385 2.26279 8.41663 1 9.97436 1H12.0256C13.5834 1 14.8462 2.26279 14.8462 3.82051V4.84615C14.8462 5.27099 14.5018 5.61539 14.0769 5.61539C13.6521 5.61539 13.3077 5.27099 13.3077 4.84615V3.82051C13.3077 3.11246 12.7337 2.53846 12.0256 2.53846H9.97436C9.2663 2.53846 8.69231 3.11246 8.69231 3.82051V4.84615C8.69231 5.27099 8.34791 5.61539 7.92308 5.61539C7.49824 5.61539 7.15385 5.27099 7.15385 4.84615V3.82051Z" fill="#304ACA"/>
<path d="M1.81453 7.40785L1.66668 7.38251L1.81453 7.40785ZM20.1855 7.40785L20.3333 7.38251L20.1855 7.40785ZM20.9105 12.8018L20.7609 12.8126L20.9105 12.8018ZM20.9727 18.0369L21.1226 18.0404L20.9727 18.0369ZM18.3677 20.7258L18.3589 20.5761L18.3677 20.7258ZM11 21V20.85V21ZM3.63229 20.7258L3.64113 20.5761L3.63229 20.7258ZM1.02733 18.0369L1.17728 18.0333L1.02733 18.0369ZM1.0895 12.8018L0.939888 12.791L1.0895 12.8018ZM3.33088 7.66773L3.47872 7.69306L3.33088 7.66773ZM2.62396 12.9127L2.47435 12.9019L2.62396 12.9127ZM2.56535 18L2.41539 18.0036L2.56535 18ZM3.72291 19.19L3.71407 19.3397L3.72291 19.19ZM11 19.4615V19.3115V19.4615ZM18.2771 19.19L18.2859 19.3397L18.2771 19.19ZM19.4347 18L19.5846 18.0036L19.4347 18ZM19.376 12.9127L19.2264 12.9235L19.376 12.9127ZM18.6691 7.66773L18.5213 7.69306V7.69306L18.6691 7.66773ZM4.56643 4.95256C3.14559 4.95256 1.91011 5.9621 1.66668 7.38251L1.96237 7.43319C2.18053 6.16023 3.28823 5.25256 4.56643 5.25256V4.95256ZM17.4336 4.95256H4.56643V5.25256H17.4336V4.95256ZM20.3333 7.38251C20.0899 5.9621 18.8544 4.95256 17.4336 4.95256V5.25256C18.7118 5.25256 19.8195 6.16023 20.0376 7.43319L20.3333 7.38251ZM21.0601 12.791C20.9377 11.0967 20.5883 8.87003 20.3333 7.38251L20.0376 7.43319C20.2925 8.9201 20.6396 11.1341 20.7609 12.8126L21.0601 12.791ZM21.1226 18.0404C21.1582 16.5547 21.1778 14.4188 21.0601 12.791L20.7609 12.8126C20.8774 14.4249 20.8583 16.5485 20.8227 18.0333L21.1226 18.0404ZM18.3765 20.8755C19.888 20.7864 21.0861 19.5647 21.1226 18.0404L20.8227 18.0333C20.79 19.3997 19.7164 20.496 18.3589 20.5761L18.3765 20.8755ZM11 21.15C13.3149 21.15 16.437 20.99 18.3765 20.8755L18.3589 20.5761C16.4195 20.6905 13.3052 20.85 11 20.85V21.15ZM3.62346 20.8755C5.563 20.99 8.68509 21.15 11 21.15L11 20.85C8.69478 20.85 5.5805 20.6905 3.64113 20.5761L3.62346 20.8755ZM0.87737 18.0404C0.913866 19.5647 2.11203 20.7864 3.62346 20.8755L3.64113 20.5761C2.28363 20.496 1.21 19.3997 1.17728 18.0333L0.87737 18.0404ZM0.939888 12.791C0.822245 14.4188 0.841799 16.5547 0.87737 18.0404L1.17728 18.0333C1.14173 16.5485 1.12259 14.4249 1.23911 12.8126L0.939888 12.791ZM1.66668 7.38251C1.41174 8.87003 1.06234 11.0967 0.939888 12.791L1.23911 12.8126C1.36041 11.1341 1.70754 8.9201 1.96237 7.43319L1.66668 7.38251ZM3.47872 7.69306C3.56753 7.1749 4.0211 6.79103 4.56643 6.79103V6.49103C3.8778 6.49103 3.297 6.97742 3.18303 7.64239L3.47872 7.69306ZM2.77357 12.9235C2.88899 11.3265 3.22442 9.17691 3.47872 7.69306L3.18303 7.64239C2.92863 9.12683 2.59091 11.289 2.47435 12.9019L2.77357 12.9235ZM2.7153 17.9964C2.67986 16.5162 2.66279 14.4563 2.77357 12.9235L2.47435 12.9019C2.36245 14.4502 2.37993 16.5225 2.41539 18.0036L2.7153 17.9964ZM3.73175 19.0403C3.16453 19.0068 2.72866 18.5542 2.7153 17.9964L2.41539 18.0036C2.43251 18.7188 2.99251 19.2972 3.71407 19.3397L3.73175 19.0403ZM11 19.3115C8.7445 19.3115 5.67025 19.1546 3.73175 19.0403L3.71407 19.3397C5.65275 19.4541 8.7348 19.6115 11 19.6115L11 19.3115ZM18.2683 19.0403C16.3297 19.1546 13.2555 19.3115 11 19.3115V19.6115C13.2652 19.6115 16.3473 19.4541 18.2859 19.3397L18.2683 19.0403ZM19.2847 17.9964C19.2713 18.5542 18.8355 19.0068 18.2683 19.0403L18.2859 19.3397C19.0075 19.2972 19.5675 18.7188 19.5846 18.0036L19.2847 17.9964ZM19.2264 12.9235C19.3372 14.4563 19.3201 16.5162 19.2847 17.9964L19.5846 18.0036C19.6201 16.5225 19.6376 14.4502 19.5257 12.9019L19.2264 12.9235ZM18.5213 7.69306C18.7756 9.17691 19.111 11.3265 19.2264 12.9235L19.5257 12.9019C19.4091 11.289 19.0714 9.12683 18.817 7.64239L18.5213 7.69306ZM17.4336 6.79103C17.9789 6.79103 18.4325 7.1749 18.5213 7.69306L18.817 7.64239C18.703 6.97742 18.1222 6.49103 17.4336 6.49103V6.79103ZM4.56643 6.79103H17.4336V6.49103H4.56643V6.79103ZM8.79872 9.97436C8.79872 10.458 8.40668 10.85 7.92308 10.85V11.15C8.57237 11.15 9.09872 10.6236 9.09872 9.97436H8.79872ZM7.92308 10.85C7.43948 10.85 7.04744 10.458 7.04744 9.97436H6.74744C6.74744 10.6236 7.27379 11.15 7.92308 11.15V10.85ZM7.04744 9.97436C7.04744 9.49076 7.43948 9.09872 7.92308 9.09872V8.79872C7.27379 8.79872 6.74744 9.32507 6.74744 9.97436H7.04744ZM7.92308 9.09872C8.40668 9.09872 8.79872 9.49076 8.79872 9.97436H9.09872C9.09872 9.32507 8.57237 8.79872 7.92308 8.79872V9.09872ZM14.9526 9.97436C14.9526 10.458 14.5605 10.85 14.0769 10.85V11.15C14.7262 11.15 15.2526 10.6236 15.2526 9.97436H14.9526ZM14.0769 10.85C13.5933 10.85 13.2013 10.458 13.2013 9.97436H12.9013C12.9013 10.6236 13.4276 11.15 14.0769 11.15V10.85ZM13.2013 9.97436C13.2013 9.49076 13.5933 9.09872 14.0769 9.09872V8.79872C13.4276 8.79872 12.9013 9.32507 12.9013 9.97436H13.2013ZM14.0769 9.09872C14.5605 9.09872 14.9526 9.49076 14.9526 9.97436H15.2526C15.2526 9.32507 14.7262 8.79872 14.0769 8.79872V9.09872ZM9.97436 0.85C8.33379 0.85 7.00385 2.17994 7.00385 3.82051H7.30385C7.30385 2.34563 8.49948 1.15 9.97436 1.15V0.85ZM12.0256 0.85H9.97436V1.15H12.0256V0.85ZM14.9962 3.82051C14.9962 2.17994 13.6662 0.85 12.0256 0.85V1.15C13.5005 1.15 14.6962 2.34563 14.6962 3.82051H14.9962ZM14.9962 4.84615V3.82051H14.6962V4.84615H14.9962ZM14.0769 5.76538C14.5846 5.76538 14.9962 5.35383 14.9962 4.84615H14.6962C14.6962 5.18815 14.4189 5.46538 14.0769 5.46538V5.76538ZM13.1577 4.84615C13.1577 5.35383 13.5692 5.76538 14.0769 5.76538V5.46538C13.7349 5.46538 13.4577 5.18815 13.4577 4.84615H13.1577ZM13.1577 3.82051V4.84615H13.4577V3.82051H13.1577ZM12.0256 2.68846C12.6509 2.68846 13.1577 3.1953 13.1577 3.82051H13.4577C13.4577 3.02961 12.8165 2.38846 12.0256 2.38846V2.68846ZM9.97436 2.68846H12.0256V2.38846H9.97436V2.68846ZM8.84231 3.82051C8.84231 3.1953 9.34914 2.68846 9.97436 2.68846V2.38846C9.18346 2.38846 8.54231 3.02961 8.54231 3.82051H8.84231ZM8.84231 4.84615V3.82051H8.54231V4.84615H8.84231ZM7.92308 5.76538C8.43076 5.76538 8.84231 5.35383 8.84231 4.84615H8.54231C8.54231 5.18815 8.26507 5.46538 7.92308 5.46538V5.76538ZM7.00385 4.84615C7.00385 5.35383 7.4154 5.76538 7.92308 5.76538V5.46538C7.58109 5.46538 7.30385 5.18815 7.30385 4.84615H7.00385ZM7.00385 3.82051V4.84615H7.30385V3.82051H7.00385Z" fill="#304ACA"/>
</svg>
